<svg version="1.1" id="Layer_1" xmlns="http://www.w3.org/2000/svg" xmlns:xlink="http://www.w3.org/1999/xlink" x="0px" y="0px"
	 width="100%" viewBox="0 0 886 116" enable-background="new 0 0 886 116" xml:space="preserve">
<path fill="#E9E9E9" opacity="1.000000" stroke="none" 
	d="
M444.000000,1.000000 
	C591.602661,1.000000 739.205322,1.000000 886.903992,1.000000 
	C886.903992,39.585690 886.903992,78.171700 886.903992,117.000000 
	C739.644714,117.000000 592.289368,117.000000 444.465363,116.531342 
	C443.997833,77.708458 443.998932,39.354229 444.000000,1.000000 
M729.174133,56.704140 
	C729.181763,55.371433 729.110779,54.032875 729.209656,52.706959 
	C729.908569,43.327820 735.051147,38.392216 743.842163,38.617401 
	C752.061768,38.827950 756.078064,43.651009 756.155029,53.413025 
	C756.168152,55.078903 756.156982,56.744976 756.156982,58.410957 
	C756.156982,69.858292 756.156982,81.305634 756.156982,92.924286 
	C761.575134,92.924286 766.484070,92.924286 771.843018,92.924286 
	C771.843018,91.056229 771.842834,89.432335 771.842957,87.808441 
	C771.843933,76.313164 771.750061,64.816849 771.875671,53.322933 
	C771.978027,43.959064 776.994995,38.764614 785.770081,38.559372 
	C794.163513,38.363060 798.961243,43.251892 799.423645,52.809315 
	C799.656860,57.629604 799.477234,62.470013 799.478699,67.301323 
	C799.481262,75.768600 799.479431,84.235878 799.479431,92.935005 
	C804.816895,92.935005 809.714783,92.935005 815.004944,92.935005 
	C815.004944,84.108772 815.134827,75.480553 814.966064,66.858177 
	C814.816528,59.216824 814.938904,51.494984 813.854370,43.965240 
	C812.340027,33.451660 804.806763,26.985476 794.264465,25.830862 
	C784.289001,24.738321 775.412964,26.830973 768.431335,35.141663 
	C763.715637,28.299423 756.992493,25.671301 749.140015,25.511635 
	C741.373352,25.353712 734.578796,27.781691 729.011414,34.177715 
	C728.876526,31.259993 728.777649,29.120867 728.667542,26.739891 
	C723.718445,26.739891 718.956543,26.739891 714.047485,26.739891 
	C714.047485,48.906384 714.047485,70.824661 714.047485,92.871231 
	C719.152100,92.871231 724.029968,92.871231 729.174194,92.871231 
	C729.174194,80.932899 729.174194,69.295700 729.174133,56.704140 
M538.486450,66.785538 
	C538.486450,53.505428 538.486450,40.225319 538.486450,26.718029 
	C532.978210,26.718029 528.214355,26.718029 523.208801,26.718029 
	C523.208801,41.841690 522.643005,56.808922 523.415833,71.706718 
	C523.898376,81.009384 528.905090,88.618614 538.179932,91.869835 
	C550.429443,96.163826 562.299805,95.471748 572.801025,87.045929 
	C582.254272,94.058647 591.743713,95.899864 603.121765,93.248207 
	C613.670227,90.789871 620.904297,84.188202 621.648315,73.676208 
	C622.744995,58.180607 621.931396,42.549816 621.931396,26.768536 
	C617.397095,26.768536 612.479797,26.768536 607.155945,26.768536 
	C607.155945,38.666698 607.229431,50.287830 607.111023,61.907005 
	C607.075745,65.370026 606.928589,68.935242 606.086487,72.264915 
	C604.391602,78.966568 600.047485,81.572037 592.529236,81.068237 
	C586.080261,80.636101 581.626343,77.119255 581.117615,70.716537 
	C580.459961,62.439373 580.635132,54.092995 580.536743,45.775410 
	C580.462524,39.500675 580.522034,33.224365 580.522034,26.767223 
	C575.040466,26.767223 570.135010,26.767223 564.994324,26.767223 
	C564.994324,28.869610 564.994446,30.693666 564.994324,32.517723 
	C564.993591,43.842831 565.134033,55.170223 564.950562,66.492371 
	C564.781738,76.911087 559.414673,81.880348 549.740784,81.037018 
	C542.757263,80.428223 539.625549,76.696838 538.486450,66.785538 
M646.969421,32.424522 
	C641.391418,37.465126 638.240234,43.815357 637.854675,51.236488 
	C637.354065,60.872578 637.335999,70.534683 637.166016,80.186562 
	C637.091003,84.446083 637.153381,88.708023 637.153381,92.890060 
	C642.619507,92.890060 647.381348,92.890060 652.738159,92.890060 
	C652.738159,87.560120 652.738159,82.502312 652.738159,77.430008 
	C663.096252,77.430008 672.850830,77.430008 683.062378,77.430008 
	C683.062378,82.753075 683.062378,87.837723 683.062378,92.843033 
	C688.420044,92.843033 693.309143,92.843033 698.017761,92.843033 
	C698.017761,78.375282 698.512329,64.220207 697.840454,50.120716 
	C697.407043,41.027020 692.714783,33.306709 684.309998,29.291445 
	C671.769775,23.300543 659.239014,23.555988 646.969421,32.424522 
M469.168915,85.547752 
	C467.451630,77.055984 472.234589,71.947845 478.550079,67.454353 
	C484.797180,75.149918 490.944244,82.805756 497.214661,90.359154 
	C498.188324,91.532036 499.683258,92.952370 501.010345,93.031517 
	C506.198853,93.340942 511.416748,93.157898 517.451965,93.157898 
	C507.364197,80.369423 497.936707,68.418037 488.372406,56.293198 
	C497.457184,46.460403 506.294739,36.895222 515.903259,26.495562 
	C510.626526,26.495562 506.484741,26.217611 502.407745,26.611258 
	C500.327545,26.812103 497.856293,27.717623 496.431305,29.162300 
	C488.368835,37.336014 480.579254,45.778511 472.668152,54.102306 
	C471.757080,55.060932 470.668915,55.851257 468.926086,57.355591 
	C468.926086,46.421703 468.926086,36.652012 468.926086,26.741022 
	C463.854584,26.741022 459.090912,26.741022 454.377045,26.741022 
	C454.377045,49.018230 454.377045,71.047852 454.377045,92.821953 
	C459.508759,92.821953 464.257019,92.821953 469.168915,92.821953 
	C469.168915,90.489578 469.168915,88.503334 469.168915,85.547752 
M872.344543,39.905735 
	C874.155701,40.517273 875.966858,41.128807 878.024292,41.823486 
	C879.470154,37.837872 880.805786,34.156197 882.323364,29.972958 
	C867.393677,24.840664 852.881653,22.685911 838.478516,30.005209 
	C830.904053,33.854340 827.181946,41.275696 829.361816,48.633247 
	C830.506042,52.495190 833.431702,55.829357 835.646545,59.559525 
	C828.963013,62.843834 825.214050,68.618927 826.160461,76.595413 
	C827.169739,85.101715 833.113770,89.923691 840.757263,91.824562 
	C847.271301,93.444565 854.182434,93.977318 860.926086,94.034866 
	C869.246338,94.105850 877.283081,92.230392 884.590332,87.353622 
	C882.913391,83.325890 881.397278,79.684624 879.849915,75.968140 
	C878.495667,76.701805 877.512634,77.328308 876.457764,77.791206 
	C867.033020,81.927101 857.348938,83.407974 847.323792,80.284492 
	C843.863098,79.206261 841.587219,76.993034 841.752869,73.002083 
	C841.911255,69.185616 844.354858,67.455574 847.643555,66.553902 
	C848.906128,66.207741 850.232361,65.923935 851.532288,65.912323 
	C858.488159,65.850174 865.444824,65.883003 872.522339,65.883003 
	C872.522339,61.287415 872.522339,57.581966 872.522339,53.151508 
	C865.739746,53.151508 859.268799,53.257244 852.803528,53.113342 
	C848.675964,53.021469 845.104004,51.701260 844.696899,46.821407 
	C844.275085,41.766350 847.665222,39.172462 851.876953,38.964123 
	C858.410828,38.640915 864.998596,39.405933 872.344543,39.905735 
z"/>
<path fill="#000000" opacity="1.000000" stroke="none" 
	d="
M443.531342,1.000000 
	C443.998932,39.354229 443.997833,77.708458 443.998383,116.531342 
	C296.397797,117.000000 148.795609,117.000000 1.096708,117.000000 
	C1.096708,78.414902 1.096708,39.829483 1.096708,1.000000 
	C148.354141,1.000000 295.708405,1.000000 443.531342,1.000000 
M176.485443,94.000000 
	C182.734009,93.665535 189.061752,93.826889 195.207001,92.845474 
	C200.470551,92.004860 205.511353,90.102287 209.199997,85.506866 
	C215.435562,77.738426 213.796890,62.341038 201.261276,58.617054 
	C208.105637,53.892052 210.721786,48.160309 208.885773,39.528839 
	C207.517197,33.094860 202.531189,28.851135 196.411240,28.201881 
	C181.434341,26.613007 166.348083,26.054855 151.281860,25.080336 
	C151.281860,48.965149 151.281860,71.369057 151.281860,94.000000 
	C159.537704,94.000000 167.513718,94.000000 176.485443,94.000000 
M19.025883,87.540398 
	C30.809313,95.629448 43.227108,96.738411 56.768017,92.137527 
	C78.507858,84.750854 84.969307,58.313202 73.810692,41.356506 
	C68.000237,32.526905 59.860939,27.265297 49.276573,25.638746 
	C36.902313,23.737131 25.545420,25.934052 16.228823,34.436592 
	C7.457117,42.441856 4.251207,52.616756 5.856563,64.655632 
	C7.108396,74.043373 10.883577,81.482445 19.025883,87.540398 
M259.287903,25.000006 
	C255.054016,25.335428 250.666611,25.075142 246.615356,26.119230 
	C234.987427,29.115986 226.045471,35.312523 221.812286,47.399475 
	C219.723892,53.362442 219.601074,59.177727 219.978928,65.238777 
	C220.492294,73.473503 224.353928,80.470932 230.255417,85.395622 
	C239.749588,93.318321 250.888046,96.318184 263.694733,94.159561 
	C288.149384,90.037651 299.829773,65.313820 289.394440,43.991989 
	C283.567535,32.086216 273.006012,26.623587 259.287903,25.000006 
M357.034851,34.556797 
	C354.054993,32.698677 351.272461,30.344030 348.061310,29.067942 
	C333.766663,23.387379 318.853668,27.089996 304.000000,25.859737 
	C304.000000,37.725430 304.000000,48.867195 304.000000,60.008961 
	C304.000000,71.270004 304.000000,82.531052 304.000000,93.710617 
	C309.650085,93.710617 314.721527,93.710617 320.182251,93.710617 
	C320.182251,87.348969 320.182251,81.270760 320.182251,75.655640 
	C329.930603,72.915695 336.634094,75.906891 340.521271,84.946335 
	C341.396393,86.981415 342.795654,88.853531 344.235504,90.563301 
	C345.358673,91.897018 346.852753,93.726021 348.296814,93.836609 
	C353.470734,94.232857 358.693512,93.991905 364.697571,93.991905 
	C359.864136,87.058884 355.803558,80.879654 351.339905,75.006783 
	C349.558929,72.663559 349.796875,71.876572 352.128265,70.203018 
	C354.952362,68.175789 357.837006,65.694771 359.540283,62.743420 
	C365.021301,53.246212 363.528839,43.924091 357.034851,34.556797 
M419.000000,53.752708 
	C419.000000,67.039627 419.000000,80.326553 419.000000,93.794632 
	C424.808044,93.794632 430.213043,93.794632 435.998260,93.794632 
	C435.998260,92.972336 436.010529,92.347740 435.996552,91.723732 
	C435.665894,76.973259 435.919220,62.180145 434.849579,47.483334 
	C433.539337,29.480555 418.606140,22.443785 403.831421,25.803480 
	C398.963257,26.910473 394.482178,29.719826 389.910828,31.712950 
	C389.910828,30.352703 389.910828,28.380352 389.910828,26.333437 
	C384.550812,26.333437 379.335175,26.333437 374.336914,26.333437 
	C374.336914,49.074673 374.336914,71.481438 374.336914,93.658325 
	C379.755280,93.658325 384.832184,93.658325 390.997498,93.658325 
	C390.997498,79.579880 390.639801,65.833244 391.128906,52.116798 
	C391.432465,43.603859 397.592865,38.433445 405.889099,39.086803 
	C413.595428,39.693699 418.162354,42.496925 419.000000,53.752708 
M128.383453,56.998222 
	C120.911835,54.664864 113.382507,52.493710 106.013496,49.871956 
	C104.387543,49.293480 102.190033,47.040474 102.282059,45.697399 
	C102.414017,43.771557 104.066315,40.819054 105.672249,40.344479 
	C109.899055,39.095409 114.552879,38.082897 118.847145,38.587769 
	C123.800827,39.170174 128.551620,41.478340 133.406113,43.042126 
	C135.026016,39.116531 136.585892,35.336433 138.323288,31.126116 
	C124.279572,24.095339 110.271690,21.939373 96.204605,29.111853 
	C87.863525,33.364773 83.626678,43.786064 87.103302,52.966751 
	C89.908562,60.374603 96.750122,62.981026 103.727844,64.984406 
	C109.117599,66.531868 114.704262,67.535896 119.909378,69.543694 
	C125.028069,71.518166 126.932678,76.026314 121.945496,79.236870 
	C119.075928,81.084190 114.782646,82.096092 111.443588,81.553978 
	C104.300697,80.394287 97.361443,77.980339 89.528656,75.860916 
	C88.186287,78.848434 86.369598,82.891556 84.510315,87.029495 
	C94.306572,93.146034 104.724602,95.162903 115.459129,94.843880 
	C122.004280,94.649361 128.665009,93.111130 133.862671,88.586166 
	C145.245178,78.676796 143.075897,64.545547 128.383453,56.998222 
z"/>
<path fill="#040404" opacity="1.000000" stroke="none" 
	d="
M729.174194,57.181320 
	C729.174194,69.295700 729.174194,80.932899 729.174194,92.871231 
	C724.029968,92.871231 719.152100,92.871231 714.047485,92.871231 
	C714.047485,70.824661 714.047485,48.906384 714.047485,26.739891 
	C718.956543,26.739891 723.718445,26.739891 728.667542,26.739891 
	C728.777649,29.120867 728.876526,31.259993 729.011414,34.177715 
	C734.578796,27.781691 741.373352,25.353712 749.140015,25.511635 
	C756.992493,25.671301 763.715637,28.299423 768.431335,35.141663 
	C775.412964,26.830973 784.289001,24.738321 794.264465,25.830862 
	C804.806763,26.985476 812.340027,33.451660 813.854370,43.965240 
	C814.938904,51.494984 814.816528,59.216824 814.966064,66.858177 
	C815.134827,75.480553 815.004944,84.108772 815.004944,92.935005 
	C809.714783,92.935005 804.816895,92.935005 799.479431,92.935005 
	C799.479431,84.235878 799.481262,75.768600 799.478699,67.301323 
	C799.477234,62.470013 799.656860,57.629604 799.423645,52.809315 
	C798.961243,43.251892 794.163513,38.363060 785.770081,38.559372 
	C776.994995,38.764614 771.978027,43.959064 771.875671,53.322933 
	C771.750061,64.816849 771.843933,76.313164 771.842957,87.808441 
	C771.842834,89.432335 771.843018,91.056229 771.843018,92.924286 
	C766.484070,92.924286 761.575134,92.924286 756.156982,92.924286 
	C756.156982,81.305634 756.156982,69.858292 756.156982,58.410957 
	C756.156982,56.744976 756.168152,55.078903 756.155029,53.413025 
	C756.078064,43.651009 752.061768,38.827950 743.842163,38.617401 
	C735.051147,38.392216 729.908569,43.327820 729.209656,52.706959 
	C729.110779,54.032875 729.181763,55.371433 729.174194,57.181320 
z"/>
<path fill="#040404" opacity="1.000000" stroke="none" 
	d="
M538.503784,67.227219 
	C539.625549,76.696838 542.757263,80.428223 549.740784,81.037018 
	C559.414673,81.880348 564.781738,76.911087 564.950562,66.492371 
	C565.134033,55.170223 564.993591,43.842831 564.994324,32.517723 
	C564.994446,30.693666 564.994324,28.869610 564.994324,26.767223 
	C570.135010,26.767223 575.040466,26.767223 580.522034,26.767223 
	C580.522034,33.224365 580.462524,39.500675 580.536743,45.775410 
	C580.635132,54.092995 580.459961,62.439373 581.117615,70.716537 
	C581.626343,77.119255 586.080261,80.636101 592.529236,81.068237 
	C600.047485,81.572037 604.391602,78.966568 606.086487,72.264915 
	C606.928589,68.935242 607.075745,65.370026 607.111023,61.907005 
	C607.229431,50.287830 607.155945,38.666698 607.155945,26.768536 
	C612.479797,26.768536 617.397095,26.768536 621.931396,26.768536 
	C621.931396,42.549816 622.744995,58.180607 621.648315,73.676208 
	C620.904297,84.188202 613.670227,90.789871 603.121765,93.248207 
	C591.743713,95.899864 582.254272,94.058647 572.801025,87.045929 
	C562.299805,95.471748 550.429443,96.163826 538.179932,91.869835 
	C528.905090,88.618614 523.898376,81.009384 523.415833,71.706718 
	C522.643005,56.808922 523.208801,41.841690 523.208801,26.718029 
	C528.214355,26.718029 532.978210,26.718029 538.486450,26.718029 
	C538.486450,40.225319 538.486450,53.505428 538.503784,67.227219 
z"/>
<path fill="#050505" opacity="1.000000" stroke="none" 
	d="
M647.249084,32.198994 
	C659.239014,23.555988 671.769775,23.300543 684.309998,29.291445 
	C692.714783,33.306709 697.407043,41.027020 697.840454,50.120716 
	C698.512329,64.220207 698.017761,78.375282 698.017761,92.843033 
	C693.309143,92.843033 688.420044,92.843033 683.062378,92.843033 
	C683.062378,87.837723 683.062378,82.753075 683.062378,77.430008 
	C672.850830,77.430008 663.096252,77.430008 652.738159,77.430008 
	C652.738159,82.502312 652.738159,87.560120 652.738159,92.890060 
	C647.381348,92.890060 642.619507,92.890060 637.153381,92.890060 
	C637.153381,88.708023 637.091003,84.446083 637.166016,80.186562 
	C637.335999,70.534683 637.354065,60.872578 637.854675,51.236488 
	C638.240234,43.815357 641.391418,37.465126 647.249084,32.198994 
M656.489319,43.032036 
	C651.345886,49.528786 652.769287,57.052029 652.537415,64.501907 
	C663.030823,64.501907 672.910950,64.501907 682.997314,64.501907 
	C682.997314,61.185986 682.972046,58.199326 683.002563,55.213238 
	C683.067810,48.831364 681.468628,43.018379 675.240601,40.243404 
	C668.973633,37.451065 662.599487,37.714375 656.489319,43.032036 
z"/>
<path fill="#020202" opacity="1.000000" stroke="none" 
	d="
M469.168915,86.032425 
	C469.168915,88.503334 469.168915,90.489578 469.168915,92.821953 
	C464.257019,92.821953 459.508759,92.821953 454.377045,92.821953 
	C454.377045,71.047852 454.377045,49.018230 454.377045,26.741022 
	C459.090912,26.741022 463.854584,26.741022 468.926086,26.741022 
	C468.926086,36.652012 468.926086,46.421703 468.926086,57.355591 
	C470.668915,55.851257 471.757080,55.060932 472.668152,54.102306 
	C480.579254,45.778511 488.368835,37.336014 496.431305,29.162300 
	C497.856293,27.717623 500.327545,26.812103 502.407745,26.611258 
	C506.484741,26.217611 510.626526,26.495562 515.903259,26.495562 
	C506.294739,36.895222 497.457184,46.460403 488.372406,56.293198 
	C497.936707,68.418037 507.364197,80.369423 517.451965,93.157898 
	C511.416748,93.157898 506.198853,93.340942 501.010345,93.031517 
	C499.683258,92.952370 498.188324,91.532036 497.214661,90.359154 
	C490.944244,82.805756 484.797180,75.149918 478.550079,67.454353 
	C472.234589,71.947845 467.451630,77.055984 469.168915,86.032425 
z"/>
<path fill="#050505" opacity="1.000000" stroke="none" 
	d="
M871.953979,39.807667 
	C864.998596,39.405933 858.410828,38.640915 851.876953,38.964123 
	C847.665222,39.172462 844.275085,41.766350 844.696899,46.821407 
	C845.104004,51.701260 848.675964,53.021469 852.803528,53.113342 
	C859.268799,53.257244 865.739746,53.151508 872.522339,53.151508 
	C872.522339,57.581966 872.522339,61.287415 872.522339,65.883003 
	C865.444824,65.883003 858.488159,65.850174 851.532288,65.912323 
	C850.232361,65.923935 848.906128,66.207741 847.643555,66.553902 
	C844.354858,67.455574 841.911255,69.185616 841.752869,73.002083 
	C841.587219,76.993034 843.863098,79.206261 847.323792,80.284492 
	C857.348938,83.407974 867.033020,81.927101 876.457764,77.791206 
	C877.512634,77.328308 878.495667,76.701805 879.849915,75.968140 
	C881.397278,79.684624 882.913391,83.325890 884.590332,87.353622 
	C877.283081,92.230392 869.246338,94.105850 860.926086,94.034866 
	C854.182434,93.977318 847.271301,93.444565 840.757263,91.824562 
	C833.113770,89.923691 827.169739,85.101715 826.160461,76.595413 
	C825.214050,68.618927 828.963013,62.843834 835.646545,59.559525 
	C833.431702,55.829357 830.506042,52.495190 829.361816,48.633247 
	C827.181946,41.275696 830.904053,33.854340 838.478516,30.005209 
	C852.881653,22.685911 867.393677,24.840664 882.323364,29.972958 
	C880.805786,34.156197 879.470154,37.837872 878.024292,41.823486 
	C875.966858,41.128807 874.155701,40.517273 871.953979,39.807667 
z"/>
<path fill="#FFFFFF" opacity="1.000000" stroke="none" 
	d="
M175.987579,94.000000 
	C167.513718,94.000000 159.537704,94.000000 151.281860,94.000000 
	C151.281860,71.369057 151.281860,48.965149 151.281860,25.080336 
	C166.348083,26.054855 181.434341,26.613007 196.411240,28.201881 
	C202.531189,28.851135 207.517197,33.094860 208.885773,39.528839 
	C210.721786,48.160309 208.105637,53.892052 201.261276,58.617054 
	C213.796890,62.341038 215.435562,77.738426 209.199997,85.506866 
	C205.511353,90.102287 200.470551,92.004860 195.207001,92.845474 
	C189.061752,93.826889 182.734009,93.665535 175.987579,94.000000 
M185.276886,66.000000 
	C179.203491,66.000000 173.130081,66.000000 167.347443,66.000000 
	C167.347443,71.447418 167.347443,76.183655 167.347443,80.999916 
	C174.174973,80.999916 180.657684,81.108292 187.135040,80.968590 
	C193.274765,80.836174 196.346954,77.784225 195.999725,72.530998 
	C195.724716,68.370361 192.244522,66.048950 185.276886,66.000000 
M175.428604,53.999996 
	C179.313400,53.649609 183.334518,53.801907 187.041702,52.796585 
	C190.254791,51.925266 194.079819,49.810699 192.769455,45.688713 
	C191.944611,43.094082 189.093094,39.627472 186.776321,39.313324 
	C180.337265,38.440201 173.702499,39.010323 167.288116,39.010323 
	C167.288116,44.351822 167.288116,49.073837 167.288116,54.000000 
	C169.871338,54.000000 172.171432,54.000000 175.428604,53.999996 
z"/>
<path fill="#FFFFFF" opacity="1.000000" stroke="none" 
	d="
M18.767290,87.273689 
	C10.883577,81.482445 7.108396,74.043373 5.856563,64.655632 
	C4.251207,52.616756 7.457117,42.441856 16.228823,34.436592 
	C25.545420,25.934052 36.902313,23.737131 49.276573,25.638746 
	C59.860939,27.265297 68.000237,32.526905 73.810692,41.356506 
	C84.969307,58.313202 78.507858,84.750854 56.768017,92.137527 
	C43.227108,96.738411 30.809313,95.629448 18.767290,87.273689 
M36.808208,79.998795 
	C39.212349,80.324280 41.711544,81.245850 44.005455,80.880066 
	C60.948059,78.178406 67.093468,61.391197 59.041912,48.090412 
	C55.228771,41.791294 45.790012,37.455891 38.769184,39.095581 
	C29.013626,41.373959 22.377491,49.001968 21.938160,57.651337 
	C21.385529,68.531242 26.022505,75.856186 36.808208,79.998795 
z"/>
<path fill="#FFFFFF" opacity="1.000000" stroke="none" 
	d="
M259.749634,25.000057 
	C273.006012,26.623587 283.567535,32.086216 289.394440,43.991989 
	C299.829773,65.313820 288.149384,90.037651 263.694733,94.159561 
	C250.888046,96.318184 239.749588,93.318321 230.255417,85.395622 
	C224.353928,80.470932 220.492294,73.473503 219.978928,65.238777 
	C219.601074,59.177727 219.723892,53.362442 221.812286,47.399475 
	C226.045471,35.312523 234.987427,29.115986 246.615356,26.119230 
	C250.666611,25.075142 255.054016,25.335428 259.749634,25.000057 
M266.929688,77.608810 
	C277.801849,71.890984 280.696228,54.028763 270.084473,44.470234 
	C263.657898,38.681492 252.728058,37.049271 245.893219,41.646103 
	C237.038818,47.601204 234.602066,56.960651 236.606293,65.137123 
	C239.323288,76.221390 251.886963,85.440102 266.929688,77.608810 
z"/>
<path fill="#FFFFFF" opacity="1.000000" stroke="none" 
	d="
M357.310822,34.812576 
	C363.528839,43.924091 365.021301,53.246212 359.540283,62.743420 
	C357.837006,65.694771 354.952362,68.175789 352.128265,70.203018 
	C349.796875,71.876572 349.558929,72.663559 351.339905,75.006783 
	C355.803558,80.879654 359.864136,87.058884 364.697571,93.991905 
	C358.693512,93.991905 353.470734,94.232857 348.296814,93.836609 
	C346.852753,93.726021 345.358673,91.897018 344.235504,90.563301 
	C342.795654,88.853531 341.396393,86.981415 340.521271,84.946335 
	C336.634094,75.906891 329.930603,72.915695 320.182251,75.655640 
	C320.182251,81.270760 320.182251,87.348969 320.182251,93.710617 
	C314.721527,93.710617 309.650085,93.710617 304.000000,93.710617 
	C304.000000,82.531052 304.000000,71.270004 304.000000,60.008961 
	C304.000000,48.867195 304.000000,37.725430 304.000000,25.859737 
	C318.853668,27.089996 333.766663,23.387379 348.061310,29.067942 
	C351.272461,30.344030 354.054993,32.698677 357.310822,34.812576 
M343.541718,43.038979 
	C336.286133,38.227238 328.206421,39.068958 320.280426,39.034763 
	C320.280426,47.015709 320.280426,54.397125 320.280426,61.999634 
	C325.179382,61.999634 329.827515,62.324326 334.414948,61.934505 
	C345.171600,61.020439 349.139740,52.358948 343.541718,43.038979 
z"/>
<path fill="#FFFFFF" opacity="1.000000" stroke="none" 
	d="
M419.000000,53.287300 
	C418.162354,42.496925 413.595428,39.693699 405.889099,39.086803 
	C397.592865,38.433445 391.432465,43.603859 391.128906,52.116798 
	C390.639801,65.833244 390.997498,79.579880 390.997498,93.658325 
	C384.832184,93.658325 379.755280,93.658325 374.336914,93.658325 
	C374.336914,71.481438 374.336914,49.074673 374.336914,26.333437 
	C379.335175,26.333437 384.550812,26.333437 389.910828,26.333437 
	C389.910828,28.380352 389.910828,30.352703 389.910828,31.712950 
	C394.482178,29.719826 398.963257,26.910473 403.831421,25.803480 
	C418.606140,22.443785 433.539337,29.480555 434.849579,47.483334 
	C435.919220,62.180145 435.665894,76.973259 435.996552,91.723732 
	C436.010529,92.347740 435.998260,92.972336 435.998260,93.794632 
	C430.213043,93.794632 424.808044,93.794632 419.000000,93.794632 
	C419.000000,80.326553 419.000000,67.039627 419.000000,53.287300 
z"/>
<path fill="#FFFFFF" opacity="1.000000" stroke="none" 
	d="
M128.781769,57.011642 
	C143.075897,64.545547 145.245178,78.676796 133.862671,88.586166 
	C128.665009,93.111130 122.004280,94.649361 115.459129,94.843880 
	C104.724602,95.162903 94.306572,93.146034 84.510315,87.029495 
	C86.369598,82.891556 88.186287,78.848434 89.528656,75.860916 
	C97.361443,77.980339 104.300697,80.394287 111.443588,81.553978 
	C114.782646,82.096092 119.075928,81.084190 121.945496,79.236870 
	C126.932678,76.026314 125.028069,71.518166 119.909378,69.543694 
	C114.704262,67.535896 109.117599,66.531868 103.727844,64.984406 
	C96.750122,62.981026 89.908562,60.374603 87.103302,52.966751 
	C83.626678,43.786064 87.863525,33.364773 96.204605,29.111853 
	C110.271690,21.939373 124.279572,24.095339 138.323288,31.126116 
	C136.585892,35.336433 135.026016,39.116531 133.406113,43.042126 
	C128.551620,41.478340 123.800827,39.170174 118.847145,38.587769 
	C114.552879,38.082897 109.899055,39.095409 105.672249,40.344479 
	C104.066315,40.819054 102.414017,43.771557 102.282059,45.697399 
	C102.190033,47.040474 104.387543,49.293480 106.013496,49.871956 
	C113.382507,52.493710 120.911835,54.664864 128.781769,57.011642 
z"/>
<path fill="#E7E7E7" opacity="1.000000" stroke="none" 
	d="
M656.758423,42.761978 
	C662.599487,37.714375 668.973633,37.451065 675.240601,40.243404 
	C681.468628,43.018379 683.067810,48.831364 683.002563,55.213238 
	C682.972046,58.199326 682.997314,61.185986 682.997314,64.501907 
	C672.910950,64.501907 663.030823,64.501907 652.537415,64.501907 
	C652.769287,57.052029 651.345886,49.528786 656.758423,42.761978 
z"/>
<path fill="#000000" opacity="1.000000" stroke="none" 
	d="
M185.742767,66.000000 
	C192.244522,66.048950 195.724716,68.370361 195.999725,72.530998 
	C196.346954,77.784225 193.274765,80.836174 187.135040,80.968590 
	C180.657684,81.108292 174.174973,80.999916 167.347443,80.999916 
	C167.347443,76.183655 167.347443,71.447418 167.347443,66.000000 
	C173.130081,66.000000 179.203491,66.000000 185.742767,66.000000 
z"/>
<path fill="#000000" opacity="1.000000" stroke="none" 
	d="
M174.950073,54.000000 
	C172.171432,54.000000 169.871338,54.000000 167.288116,54.000000 
	C167.288116,49.073837 167.288116,44.351822 167.288116,39.010323 
	C173.702499,39.010323 180.337265,38.440201 186.776321,39.313324 
	C189.093094,39.627472 191.944611,43.094082 192.769455,45.688713 
	C194.079819,49.810699 190.254791,51.925266 187.041702,52.796585 
	C183.334518,53.801907 179.313400,53.649609 174.950073,54.000000 
z"/>
<path fill="#000000" opacity="1.000000" stroke="none" 
	d="
M36.394009,79.990280 
	C26.022505,75.856186 21.385529,68.531242 21.938160,57.651337 
	C22.377491,49.001968 29.013626,41.373959 38.769184,39.095581 
	C45.790012,37.455891 55.228771,41.791294 59.041912,48.090412 
	C67.093468,61.391197 60.948059,78.178406 44.005455,80.880066 
	C41.711544,81.245850 39.212349,80.324280 36.394009,79.990280 
z"/>
<path fill="#000000" opacity="1.000000" stroke="none" 
	d="
M266.631012,77.862206 
	C251.886963,85.440102 239.323288,76.221390 236.606293,65.137123 
	C234.602066,56.960651 237.038818,47.601204 245.893219,41.646103 
	C252.728058,37.049271 263.657898,38.681492 270.084473,44.470234 
	C280.696228,54.028763 277.801849,71.890984 266.631012,77.862206 
z"/>
<path fill="#000000" opacity="1.000000" stroke="none" 
	d="
M343.757111,43.382805 
	C349.139740,52.358948 345.171600,61.020439 334.414948,61.934505 
	C329.827515,62.324326 325.179382,61.999634 320.280426,61.999634 
	C320.280426,54.397125 320.280426,47.015709 320.280426,39.034763 
	C328.206421,39.068958 336.286133,38.227238 343.757111,43.382805 
z"/>
</svg>